<svg width="80" height="80" viewBox="0 0 80 80" fill="none" xmlns="http://www.w3.org/2000/svg">
<g clip-path="url(#clip0)">
<path d="M14.6075 0C6.5156 0 0 6.5156 0 14.6075V65.3926C0 73.4845 6.5156 80.0001 14.6075 80.0001H42.1326V48.725H33.8626V37.465H42.1326V27.845C42.1326 20.287 47.0189 13.3475 58.275 13.3475C62.8325 13.3475 66.2026 13.785 66.2026 13.785L65.9375 24.3001C65.9375 24.3001 62.5005 24.2676 58.75 24.2676C54.6909 24.2676 54.04 26.1378 54.04 29.2426V37.4651H66.26L65.7275 48.7251H54.04V80.0002H65.3925C73.4844 80.0002 80 73.4846 80 65.3926V14.6076C80 6.51568 73.4844 8e-05 65.3925 8e-05H14.6074L14.6075 0Z" fill="black"/>
</g>
<defs>
<clipPath id="clip0">
<rect width="80" height="80" fill="white"/>
</clipPath>
</defs>
</svg>
